<svg xmlns="http://www.w3.org/2000/svg" xmlns:xlink="http://www.w3.org/1999/xlink" width="500" zoomAndPan="magnify" viewBox="0 0 375 374.999991" height="500" preserveAspectRatio="xMidYMid meet" version="1.0"><defs><g/></defs><g fill="#ffffff" fill-opacity="1"><g transform="translate(0.0000045, 181.539113)"><g><path d="M 25.992188 -26.679688 L 25.992188 -30.484375 L 2.980469 -30.484375 L 2.980469 0 L 7.699219 0 L 7.699219 -13.429688 L 24.617188 -13.429688 L 24.617188 -17.144531 L 7.699219 -17.144531 L 7.699219 -26.679688 Z M 25.992188 -26.679688 "/></g></g></g><g fill="#ffffff" fill-opacity="1"><g transform="translate(28.369998, 181.539113)"><g><path d="M 26.359375 -7.882812 C 26.359375 -12.148438 24.433594 -13.476562 21.363281 -14.484375 C 24.753906 -15.355469 27.320312 -18.0625 27.320312 -22.230469 C 27.320312 -27.273438 23.929688 -30.484375 17.558594 -30.484375 L 2.980469 -30.484375 L 2.980469 0 L 7.699219 0 L 7.699219 -13.203125 L 15.402344 -13.203125 C 19.34375 -13.203125 21.773438 -11.597656 21.773438 -7.195312 L 21.773438 -4.8125 C 21.773438 -2.335938 22.09375 -0.777344 22.371094 0 L 27 0 C 26.769531 -0.871094 26.359375 -2.519531 26.359375 -4.996094 Z M 17.234375 -16.6875 L 7.699219 -16.6875 L 7.699219 -26.679688 L 17.050781 -26.679688 C 20.765625 -26.679688 22.371094 -24.890625 22.371094 -21.910156 C 22.371094 -18.65625 21.132812 -16.6875 17.234375 -16.6875 Z M 17.234375 -16.6875 "/></g></g></g><g fill="#ffffff" fill-opacity="1"><g transform="translate(58.435777, 181.539113)"><g><path d="M 17.96875 0.777344 C 28.878906 0.777344 33.417969 -6.324219 33.417969 -15.265625 C 33.417969 -24.066406 28.878906 -31.308594 17.96875 -31.308594 C 7.058594 -31.308594 2.519531 -24.113281 2.519531 -15.265625 C 2.519531 -6.28125 7.058594 0.777344 17.96875 0.777344 Z M 7.472656 -15.265625 C 7.472656 -23.285156 10.496094 -27.414062 17.96875 -27.414062 C 25.441406 -27.414062 28.464844 -23.285156 28.464844 -15.265625 C 28.464844 -7.242188 25.441406 -3.117188 17.96875 -3.117188 C 10.496094 -3.117188 7.472656 -7.242188 7.472656 -15.265625 Z M 7.472656 -15.265625 "/></g></g></g><g fill="#ffffff" fill-opacity="1"><g transform="translate(94.368048, 181.539113)"><g><path d="M 25.074219 -30.484375 L 25.074219 -2.980469 C 24.386719 -4.585938 23.5625 -6.464844 22.921875 -7.699219 L 11.140625 -30.484375 L 2.980469 -30.484375 L 2.980469 0 L 7.699219 0 L 7.699219 -27.503906 C 8.25 -26.039062 9.03125 -24.433594 9.902344 -22.691406 L 21.636719 0 L 29.796875 0 L 29.796875 -30.484375 Z M 25.074219 -30.484375 "/></g></g></g><g fill="#ffffff" fill-opacity="1"><g transform="translate(127.137905, 181.539113)"><g><path d="M 27.457031 -30.484375 L 1.605469 -30.484375 L 1.605469 -26.679688 L 12.195312 -26.679688 L 12.195312 0 L 16.914062 0 L 16.914062 -26.679688 L 27.457031 -26.679688 Z M 27.457031 -30.484375 "/></g></g></g><g fill="#ffffff" fill-opacity="1"><g transform="translate(156.195379, 181.539113)"><g><path d="M 7.699219 -3.804688 L 7.699219 -13.753906 L 24.617188 -13.753906 L 24.617188 -17.464844 L 7.699219 -17.464844 L 7.699219 -26.679688 L 25.992188 -26.679688 L 25.992188 -30.484375 L 2.980469 -30.484375 L 2.980469 0 L 26.128906 0 L 26.128906 -3.804688 Z M 7.699219 -3.804688 "/></g></g></g><g fill="#ffffff" fill-opacity="1"><g transform="translate(185.069519, 181.539113)"><g><path d="M 25.074219 -30.484375 L 25.074219 -2.980469 C 24.386719 -4.585938 23.5625 -6.464844 22.921875 -7.699219 L 11.140625 -30.484375 L 2.980469 -30.484375 L 2.980469 0 L 7.699219 0 L 7.699219 -27.503906 C 8.25 -26.039062 9.03125 -24.433594 9.902344 -22.691406 L 21.636719 0 L 29.796875 0 L 29.796875 -30.484375 Z M 25.074219 -30.484375 "/></g></g></g><g fill="#ffffff" fill-opacity="1"><g transform="translate(217.839376, 181.539113)"><g><path d="M 16.179688 -30.484375 L 2.980469 -30.484375 L 2.980469 0 L 16.179688 0 C 26.175781 0 30.53125 -7.011719 30.53125 -15.3125 C 30.53125 -23.515625 26.175781 -30.484375 16.179688 -30.484375 Z M 15.265625 -3.804688 L 7.699219 -3.804688 L 7.699219 -26.679688 L 15.265625 -26.679688 C 22.828125 -26.679688 25.578125 -22.921875 25.578125 -15.3125 C 25.578125 -7.699219 22.828125 -3.804688 15.265625 -3.804688 Z M 15.265625 -3.804688 "/></g></g></g><g fill="#ffffff" fill-opacity="1"><g transform="translate(0.0000045, 218.788579)"><g><path d="M 2.75 -10.910156 C 2.75 -4.355469 6.1875 0.640625 15.816406 0.640625 C 23.929688 0.640625 27.230469 -2.429688 27.230469 -7.929688 C 27.230469 -12.605469 25.074219 -14.898438 19.480469 -15.859375 L 11.597656 -17.191406 C 6.875 -17.96875 6.003906 -20.351562 6.003906 -22.921875 C 6.003906 -26.953125 8.570312 -29.660156 14.898438 -29.660156 C 21.726562 -29.660156 24.480469 -26.21875 24.800781 -21.179688 L 26.726562 -21.179688 C 26.3125 -27.824219 21.726562 -31.308594 14.898438 -31.308594 C 7.519531 -31.308594 3.988281 -27.503906 3.988281 -22.921875 C 3.988281 -18.792969 5.867188 -16.363281 11.367188 -15.402344 L 18.839844 -14.117188 C 23.5625 -13.292969 25.210938 -11.550781 25.210938 -7.5625 C 25.210938 -3.207031 22.414062 -1.007812 15.816406 -1.007812 C 6.648438 -1.007812 4.675781 -6.050781 4.675781 -10.910156 Z M 2.75 -10.910156 "/></g></g></g><g fill="#ffffff" fill-opacity="1"><g transform="translate(29.974116, 218.788579)"><g><path d="M 17.191406 0.777344 C 27.136719 0.777344 31.859375 -5.683594 31.859375 -15.3125 C 31.859375 -24.800781 27.136719 -31.308594 17.191406 -31.308594 C 7.242188 -31.308594 2.519531 -24.84375 2.519531 -15.3125 C 2.519531 -5.636719 7.242188 0.777344 17.191406 0.777344 Z M 4.585938 -15.3125 C 4.585938 -24.984375 8.753906 -29.660156 17.191406 -29.660156 C 25.625 -29.660156 29.796875 -24.984375 29.796875 -15.3125 C 29.796875 -5.59375 25.625 -0.871094 17.191406 -0.871094 C 8.753906 -0.871094 4.585938 -5.59375 4.585938 -15.3125 Z M 4.585938 -15.3125 "/></g></g></g><g fill="#ffffff" fill-opacity="1"><g transform="translate(64.348103, 218.788579)"><g><path d="M 5.363281 -1.648438 L 5.363281 -30.484375 L 3.4375 -30.484375 L 3.4375 0 L 22.277344 0 L 22.277344 -1.648438 Z M 5.363281 -1.648438 "/></g></g></g><g fill="#ffffff" fill-opacity="1"><g transform="translate(88.914046, 218.788579)"><g><path d="M 3.207031 -10.542969 C 3.207031 -3.390625 6.507812 0.734375 14.945312 0.734375 C 23.378906 0.734375 26.679688 -3.4375 26.679688 -10.542969 L 26.679688 -30.484375 L 24.753906 -30.484375 L 24.753906 -10.589844 C 24.753906 -3.894531 21.726562 -0.917969 14.945312 -0.917969 C 8.160156 -0.917969 5.132812 -3.894531 5.132812 -10.589844 L 5.132812 -30.484375 L 3.207031 -30.484375 Z M 3.207031 -10.542969 "/></g></g></g><g fill="#ffffff" fill-opacity="1"><g transform="translate(118.79649, 218.788579)"><g><path d="M 26.679688 -30.484375 L 1.375 -30.484375 L 1.375 -28.832031 L 13.109375 -28.832031 L 13.109375 0.0898438 L 15.035156 0.0898438 L 15.035156 -28.832031 L 26.679688 -28.832031 Z M 26.679688 -30.484375 "/></g></g></g><g fill="#ffffff" fill-opacity="1"><g transform="translate(146.84566, 218.788579)"><g><path d="M 18.976562 -28.832031 L 18.976562 -30.484375 L 3.207031 -30.484375 L 3.207031 -28.832031 L 10.128906 -28.832031 L 10.128906 -1.648438 L 3.207031 -1.648438 L 3.207031 0 L 18.976562 0 L 18.976562 -1.648438 L 12.054688 -1.648438 L 12.054688 -28.832031 Z M 18.976562 -28.832031 "/></g></g></g><g fill="#ffffff" fill-opacity="1"><g transform="translate(169.028336, 218.788579)"><g><path d="M 17.191406 0.777344 C 27.136719 0.777344 31.859375 -5.683594 31.859375 -15.3125 C 31.859375 -24.800781 27.136719 -31.308594 17.191406 -31.308594 C 7.242188 -31.308594 2.519531 -24.84375 2.519531 -15.3125 C 2.519531 -5.636719 7.242188 0.777344 17.191406 0.777344 Z M 4.585938 -15.3125 C 4.585938 -24.984375 8.753906 -29.660156 17.191406 -29.660156 C 25.625 -29.660156 29.796875 -24.984375 29.796875 -15.3125 C 29.796875 -5.59375 25.625 -0.871094 17.191406 -0.871094 C 8.753906 -0.871094 4.585938 -5.59375 4.585938 -15.3125 Z M 4.585938 -15.3125 "/></g></g></g><g fill="#ffffff" fill-opacity="1"><g transform="translate(203.402335, 218.788579)"><g><path d="M 25.714844 -30.484375 L 25.714844 -1.832031 C 25.257812 -2.660156 24.753906 -3.484375 24.296875 -4.125 L 6.28125 -30.484375 L 3.4375 -30.484375 L 3.4375 0 L 5.363281 0 L 5.363281 -28.695312 C 5.683594 -28.054688 6.097656 -27.320312 6.691406 -26.449219 L 24.800781 0 L 27.640625 0 L 27.640625 -30.484375 Z M 25.714844 -30.484375 "/></g></g></g><g fill="#ffffff" fill-opacity="1"><g transform="translate(234.47643, 218.788579)"><g><path d="M 2.75 -10.910156 C 2.75 -4.355469 6.1875 0.640625 15.816406 0.640625 C 23.929688 0.640625 27.230469 -2.429688 27.230469 -7.929688 C 27.230469 -12.605469 25.074219 -14.898438 19.480469 -15.859375 L 11.597656 -17.191406 C 6.875 -17.96875 6.003906 -20.351562 6.003906 -22.921875 C 6.003906 -26.953125 8.570312 -29.660156 14.898438 -29.660156 C 21.726562 -29.660156 24.480469 -26.21875 24.800781 -21.179688 L 26.726562 -21.179688 C 26.3125 -27.824219 21.726562 -31.308594 14.898438 -31.308594 C 7.519531 -31.308594 3.988281 -27.503906 3.988281 -22.921875 C 3.988281 -18.792969 5.867188 -16.363281 11.367188 -15.402344 L 18.839844 -14.117188 C 23.5625 -13.292969 25.210938 -11.550781 25.210938 -7.5625 C 25.210938 -3.207031 22.414062 -1.007812 15.816406 -1.007812 C 6.648438 -1.007812 4.675781 -6.050781 4.675781 -10.910156 Z M 2.75 -10.910156 "/></g></g></g><g fill="#ffffff" fill-opacity="1"><g transform="translate(0.775758, 143.269831)"><g><path d="M 26.449219 -24.984375 L 26.449219 -30.484375 L 2.660156 -30.484375 L 2.660156 0 L 9.625 0 L 9.625 -12.421875 L 24.890625 -12.421875 L 24.890625 -17.601562 L 9.625 -17.601562 L 9.625 -24.984375 Z M 26.449219 -24.984375 "/></g></g></g><g fill="#ffffff" fill-opacity="1"><g transform="translate(29.145751, 143.269831)"><g><path d="M 28.007812 -7.425781 C 28.007812 -11.828125 25.578125 -13.386719 22.460938 -14.164062 C 26.082031 -14.945312 28.832031 -17.832031 28.832031 -22.140625 C 28.832031 -27.089844 25.488281 -30.484375 18.75 -30.484375 L 2.660156 -30.484375 L 2.660156 0 L 9.671875 0 L 9.671875 -11.78125 L 15.953125 -11.78125 C 18.976562 -11.78125 21.039062 -10.3125 21.039062 -6.875 L 21.039062 -5.273438 C 21.039062 -2.75 21.269531 -1.101562 21.636719 0 L 28.605469 0 C 28.285156 -1.46875 28.007812 -2.84375 28.007812 -5.363281 Z M 17.191406 -16.777344 L 9.671875 -16.777344 L 9.671875 -25.074219 L 17.191406 -25.074219 C 20.214844 -25.074219 21.542969 -23.699219 21.542969 -21.132812 C 21.542969 -18.289062 20.351562 -16.777344 17.191406 -16.777344 Z M 17.191406 -16.777344 "/></g></g></g><g fill="#ffffff" fill-opacity="1"><g transform="translate(60.082333, 143.269831)"><g><path d="M 18.152344 0.777344 C 29.84375 0.777344 34.195312 -6.832031 34.195312 -15.21875 C 34.195312 -23.46875 29.84375 -31.261719 18.152344 -31.261719 C 6.464844 -31.261719 2.0625 -23.515625 2.0625 -15.21875 C 2.0625 -6.785156 6.464844 0.777344 18.152344 0.777344 Z M 9.351562 -15.21875 C 9.351562 -21.957031 11.460938 -25.578125 18.152344 -25.578125 C 24.84375 -25.578125 26.953125 -21.957031 26.953125 -15.21875 C 26.953125 -8.570312 24.84375 -4.949219 18.152344 -4.949219 C 11.460938 -4.949219 9.351562 -8.570312 9.351562 -15.21875 Z M 9.351562 -15.21875 "/></g></g></g><g fill="#ffffff" fill-opacity="1"><g transform="translate(96.335428, 143.269831)"><g><path d="M 25.488281 -30.484375 L 25.488281 -4.949219 C 24.984375 -6.507812 24.386719 -8.066406 23.835938 -9.351562 L 14.210938 -30.484375 L 2.660156 -30.484375 L 2.660156 0 L 9.351562 0 L 9.351562 -25.488281 C 9.808594 -23.929688 10.40625 -22.371094 11.09375 -20.8125 L 20.628906 0 L 32.179688 0 L 32.179688 -30.484375 Z M 25.488281 -30.484375 "/></g></g></g><g fill="#ffffff" fill-opacity="1"><g transform="translate(131.167727, 143.269831)"><g><path d="M 28.558594 -30.484375 L 1.511719 -30.484375 L 1.511719 -24.984375 L 11.550781 -24.984375 L 11.550781 0 L 18.519531 0 L 18.519531 -24.984375 L 28.558594 -24.984375 Z M 28.558594 -30.484375 "/></g></g></g><g fill="#ffffff" fill-opacity="1"><g transform="translate(161.233506, 143.269831)"><g><path d="M 40.613281 -30.484375 L 35.710938 -4.078125 L 29.980469 -30.484375 L 19.480469 -30.484375 L 13.753906 -4.078125 L 8.800781 -30.484375 L 1.972656 -30.484375 L 7.65625 0 L 19.480469 0 L 24.707031 -25.074219 L 29.933594 0 L 41.761719 0 L 47.492188 -30.484375 Z M 40.613281 -30.484375 "/></g></g></g><g fill="#ffffff" fill-opacity="1"><g transform="translate(210.640382, 143.269831)"><g><path d="M 26.449219 0 L 33.464844 0 L 22.738281 -30.484375 L 12.101562 -30.484375 L 1.375 0 L 8.390625 0 L 10.589844 -6.234375 L 24.25 -6.234375 Z M 12.46875 -11.597656 L 17.417969 -25.671875 L 22.371094 -11.597656 Z M 12.46875 -11.597656 "/></g></g></g><g fill="#ffffff" fill-opacity="1"><g transform="translate(245.426849, 143.269831)"><g><path d="M 25.167969 -30.484375 L 18.382812 -10.496094 C 17.832031 -8.800781 17.375 -7.152344 16.914062 -5.453125 C 16.503906 -7.152344 16 -8.800781 15.449219 -10.496094 L 8.710938 -30.484375 L 1.511719 -30.484375 L 11.734375 0 L 21.957031 0 L 32.179688 -30.484375 Z M 25.167969 -30.484375 "/></g></g></g><g fill="#ffffff" fill-opacity="1"><g transform="translate(279.067532, 143.269831)"><g><path d="M 9.625 -5.546875 L 9.625 -12.972656 L 25.210938 -12.972656 L 25.210938 -18.152344 L 9.625 -18.152344 L 9.625 -24.984375 L 26.585938 -24.984375 L 26.585938 -30.484375 L 2.660156 -30.484375 L 2.660156 0 L 26.726562 0 L 26.726562 -5.546875 Z M 9.625 -5.546875 "/></g></g></g><path fill="#192cff" d="M 267.34375 222.957031 C 267.34375 222.957031 267.34375 212.269531 267.34375 212.269531 C 267.34375 212.269531 267.34375 201.578125 267.34375 201.578125 C 267.34375 201.578125 278.15625 192.71875 278.15625 192.71875 C 278.15625 192.71875 288.96875 183.855469 288.96875 183.855469 C 288.96875 183.855469 288.96875 168.246094 288.96875 168.246094 C 288.96875 168.246094 288.96875 152.632812 288.96875 152.632812 C 288.96875 152.632812 331.910156 152.632812 331.910156 152.632812 C 331.910156 152.632812 331.910156 204.671875 331.910156 204.671875 C 331.910156 204.671875 311.847656 222.957031 311.847656 222.957031 C 311.847656 222.957031 267.34375 222.957031 267.34375 222.957031 Z M 267.34375 222.957031 " fill-opacity="1" fill-rule="nonzero"/><path fill="#192cff" d="M 368.695312 156.496094 C 368.695312 156.496094 368.695312 149.230469 368.695312 149.230469 C 368.695312 149.230469 368.695312 141.964844 368.695312 141.964844 C 368.695312 141.964844 361.34375 135.941406 361.34375 135.941406 C 361.34375 135.941406 353.996094 129.917969 353.996094 129.917969 C 353.996094 129.917969 353.996094 119.308594 353.996094 119.308594 C 353.996094 119.308594 353.996094 108.695312 353.996094 108.695312 C 353.996094 108.695312 324.808594 108.695312 324.808594 108.695312 C 324.808594 108.695312 324.808594 144.070312 324.808594 144.070312 C 324.808594 144.070312 338.445312 156.496094 338.445312 156.496094 C 338.445312 156.496094 368.695312 156.496094 368.695312 156.496094 Z M 368.695312 156.496094 " fill-opacity="1" fill-rule="nonzero"/></svg>